<svg width="20" height="20" viewBox="0 0 20 20" fill="none" xmlns="http://www.w3.org/2000/svg">
<path d="M15.3207 9.37602C15.3334 9.45718 15.3618 9.53506 15.4045 9.60521C15.4472 9.67537 15.5033 9.73643 15.5696 9.7849C15.6359 9.83337 15.7111 9.86831 15.7909 9.88772C15.8708 9.90714 15.9536 9.91064 16.0348 9.89803C16.1159 9.88542 16.1938 9.85695 16.264 9.81425C16.3341 9.77154 16.3952 9.71544 16.4436 9.64914C16.4921 9.58283 16.5271 9.50763 16.5465 9.42783C16.5659 9.34802 16.5694 9.26518 16.5568 9.18402C16.4112 7.72144 15.7599 6.35546 14.7153 5.32153C13.6706 4.2876 12.298 3.65049 10.834 3.52002C10.7495 3.51265 10.6644 3.52251 10.5839 3.54898C10.5034 3.57545 10.4291 3.618 10.3655 3.67404C10.3018 3.73008 10.2503 3.79844 10.2139 3.875C10.1775 3.95155 10.157 4.0347 10.1536 4.1194C10.1503 4.20411 10.1642 4.28861 10.1945 4.36779C10.2248 4.44697 10.2708 4.51917 10.3298 4.58004C10.3888 4.6409 10.4595 4.68916 10.5377 4.72188C10.6159 4.7546 10.7 4.77111 10.7847 4.77041C10.8232 4.77282 14.6452 4.97441 15.3208 9.37482L15.3207 9.37602ZM16.7164 3.40482C12.46 -0.852786 8.57435 0.64119 8.41235 0.707214C8.26571 0.773992 8.15044 0.894712 8.09051 1.04428C8.03057 1.19385 8.03058 1.36077 8.09053 1.51033C8.15048 1.6599 8.26576 1.78061 8.41241 1.84737C8.55906 1.91413 8.72579 1.92182 8.87796 1.86882C8.91035 1.85563 12.154 0.610019 15.832 4.29041C19.2208 7.68041 18.226 11.122 18.184 11.2648C18.1462 11.4194 18.1687 11.5826 18.2468 11.7212C18.325 11.8598 18.453 11.9635 18.6049 12.0112C18.7567 12.0588 18.921 12.0469 19.0644 11.9778C19.2077 11.9087 19.3194 11.7877 19.3768 11.6392C19.4308 11.4652 20.6608 7.35041 16.7164 3.40482H16.7164ZM15.2524 18.148C15.1924 18.208 14.9968 18.3484 14.4664 18.3484C12.748 18.3484 9.45396 16.9024 6.28235 13.7296C2.11957 9.56202 1.17396 5.44721 1.86879 4.75241C2.3176 4.30124 3.25238 3.36521 4.13679 3.36521C4.62518 3.36521 5.0896 3.64721 5.55279 4.22682C6.89079 5.89482 6.31118 6.46602 5.35118 7.41402L5.1736 7.59041C4.9336 7.83041 4.80518 8.14841 4.80518 8.50841C4.80518 9.08441 5.08238 10.1248 7.4836 12.5272C9.88596 14.9296 10.9264 15.2068 11.5 15.2068C11.86 15.2068 12.1756 15.0808 12.4156 14.8408L12.592 14.6632C13.114 14.1328 13.5652 13.6756 14.1352 13.6756C14.578 13.6756 15.1312 13.9396 15.7792 14.4604C16.33 14.9044 16.6108 15.346 16.6348 15.8092C16.6852 16.7164 15.718 17.6836 15.2524 18.1492V18.148ZM14.1364 12.424C13.042 12.424 12.3304 13.1464 11.7016 13.7836L11.5 13.9552C11.308 13.9552 10.5148 13.7884 8.36796 11.6416C5.86357 9.13602 6.05796 8.47602 6.05796 8.47602L6.22957 8.30441C7.21835 7.32882 8.57196 5.99202 6.52957 3.44324C5.82157 2.56121 5.01757 2.11363 4.13677 2.11363C2.73516 2.11363 1.59516 3.25363 0.984354 3.86563C-0.824036 5.67763 1.82318 11.0344 5.39916 14.6152C8.83957 18.0592 12.4312 19.6 14.4664 19.6C15.1996 19.6 15.7624 19.408 16.1367 19.0336C16.7296 18.4408 17.9632 17.206 17.884 15.742C17.8396 14.914 17.3944 14.1544 16.5616 13.4848C15.6736 12.7708 14.8792 12.424 14.1352 12.424H14.1364Z" fill="#4971FA"/>
</svg>
