<svg width="18" height="22" viewBox="0 0 18 22" fill="none" xmlns="http://www.w3.org/2000/svg">
<path d="M5.00004 6.37441V4.77441C5.00004 2.48961 6.78404 0.62561 9.00004 0.62561C11.216 0.62561 13 2.48961 13 4.77441V6.37441H15.7648C15.8915 6.3745 16.0134 6.42259 16.1061 6.50898C16.1987 6.59537 16.2551 6.71366 16.264 6.84001L17.2144 20.84C17.2228 20.9723 17.1786 21.1025 17.0914 21.2023C17.0041 21.3021 16.881 21.3634 16.7488 21.3728H1.28484C1.15245 21.3728 1.02547 21.3202 0.931857 21.2266C0.838239 21.133 0.785645 21.006 0.785645 20.8736V20.84L1.73604 6.84001C1.74456 6.71337 1.80084 6.59469 1.89351 6.50797C1.98618 6.42124 2.10832 6.37293 2.23524 6.37281L5.00004 6.37441ZM6.50084 6.37441H11.5008V4.77441C11.5008 3.30401 10.3808 2.12481 9.00004 2.12481C7.61924 2.12481 6.50084 3.30401 6.50084 4.77441V6.37441ZM2.35524 19.8752H15.6448L14.832 7.87521H3.16964L2.35524 19.8752Z" fill="#1E1E1E"/>
</svg>
