<svg width="22" height="20" viewBox="0 0 22 20" fill="none" xmlns="http://www.w3.org/2000/svg">
<path d="M20.6264 2.60437C19.5116 1.19425 17.8735 0.276718 16.0716 0.0530887C14.2698 -0.17054 12.4513 0.318003 11.0152 1.41152C9.57917 0.318003 7.76071 -0.17054 5.95885 0.0530887C4.15699 0.276718 2.51892 1.19425 1.40407 2.60437C0.380365 3.94094 -0.111419 5.5994 0.0212528 7.26768C0.153925 8.93597 0.901905 10.4991 2.12445 11.6628L10.3313 19.7347C10.4161 19.8188 10.517 19.8855 10.6281 19.931C10.7392 19.9766 10.8584 20 10.9788 20C11.0991 20 11.2183 19.9766 11.3294 19.931C11.4406 19.8855 11.5414 19.8188 11.6262 19.7347L19.8331 11.6628C21.0666 10.5083 21.8281 8.94994 21.9743 7.28139C22.1204 5.61284 21.641 3.94933 20.6264 2.60437ZM18.6112 10.3893L11.0152 17.8602L3.41931 10.3893C2.5141 9.54161 1.95304 8.39923 1.84064 7.17492C1.72824 5.9506 2.07217 4.72785 2.80836 3.73443C3.24265 3.17858 3.79282 2.72054 4.42193 2.39105C5.05104 2.06156 5.74453 1.86824 6.45586 1.82408H6.75678C7.41773 1.82337 8.07228 1.9514 8.68266 2.20077C9.29304 2.45015 9.84718 2.81593 10.3131 3.27702C10.3979 3.36109 10.4987 3.42781 10.6098 3.47334C10.721 3.51888 10.8401 3.54232 10.9605 3.54232C11.0809 3.54232 11.2001 3.51888 11.3112 3.47334C11.4223 3.42781 11.5232 3.36109 11.608 3.27702C12.1123 2.76528 12.7232 2.36689 13.3988 2.10918C14.0744 1.85147 14.7987 1.74053 15.522 1.78398C16.2452 1.82743 16.9504 2.02424 17.5891 2.3609C18.2278 2.69757 18.7848 3.16612 19.2221 3.73443C19.9583 4.72785 20.3022 5.9506 20.1898 7.17492C20.0774 8.39923 19.5164 9.54161 18.6112 10.3893Z" fill="#1E1E1E"/>
</svg>
