<svg width="20" height="16" viewBox="0 0 20 16" fill="none" xmlns="http://www.w3.org/2000/svg">
<path d="M10.0003 12.6224C9.01866 12.6222 8.04289 12.467 7.10693 12.1623C7.0171 12.1363 6.93356 12.0912 6.86172 12.0299C6.78987 11.9686 6.73132 11.8924 6.68985 11.8063C6.64838 11.7202 6.62491 11.6261 6.62096 11.53C6.61701 11.434 6.63267 11.3382 6.66693 11.2488C6.73103 11.0846 6.85416 10.9523 7.01065 10.8794C7.16715 10.8064 7.34492 10.7985 7.50693 10.8573C9.12321 11.3827 10.8573 11.3827 12.4736 10.8573C12.6356 10.7985 12.8134 10.8064 12.9699 10.8794C13.1264 10.9523 13.2495 11.0846 13.3136 11.2488C13.3481 11.3373 13.3643 11.4322 13.3612 11.5275C13.3581 11.6228 13.3357 11.7164 13.2956 11.8024C13.2555 11.8883 13.1984 11.9647 13.128 12.0266C13.0577 12.0886 12.9756 12.1348 12.8869 12.1623C11.9531 12.4663 10.9796 12.6215 10.0003 12.6224Z" fill="#4971FA"/>
<path d="M17.6667 15.342H2.33333C1.71449 15.342 1.121 15.0888 0.683417 14.638C0.245833 14.1871 0 13.5757 0 12.9382V3.06181C0 2.42427 0.245833 1.81284 0.683417 1.36203C1.121 0.911221 1.71449 0.657959 2.33333 0.657959H17.6667C18.2855 0.657959 18.879 0.911221 19.3166 1.36203C19.7542 1.81284 20 2.42427 20 3.06181V12.9382C20 13.5757 19.7542 14.1871 19.3166 14.638C18.879 15.0888 18.2855 15.342 17.6667 15.342ZM2.33333 2.03159C2.06812 2.03159 1.81376 2.14013 1.62623 2.33333C1.43869 2.52653 1.33333 2.78857 1.33333 3.06181V12.9382C1.33333 13.2114 1.43869 13.4735 1.62623 13.6667C1.81376 13.8599 2.06812 13.9684 2.33333 13.9684H17.6667C17.9319 13.9684 18.1862 13.8599 18.3738 13.6667C18.5613 13.4735 18.6667 13.2114 18.6667 12.9382V3.06181C18.6667 2.78857 18.5613 2.52653 18.3738 2.33333C18.1862 2.14013 17.9319 2.03159 17.6667 2.03159H2.33333Z" fill="#4971FA"/>
<path d="M9.99985 7.16189C9.4785 7.1625 8.96603 7.02282 8.51318 6.75667L1.01318 2.63579L1.63985 1.427L9.15985 5.54788C9.41162 5.69604 9.69656 5.77398 9.98652 5.77398C10.2765 5.77398 10.5614 5.69604 10.8132 5.54788L18.3465 1.427L18.9732 2.63579L11.4532 6.75667C11.0111 7.01942 10.5102 7.15907 9.99985 7.16189Z" fill="#4971FA"/>
</svg>
