<svg width="20" height="20" viewBox="0 0 20 20" fill="none" xmlns="http://www.w3.org/2000/svg">
<path d="M14.936 13.4689L14.8834 13.5382L14.9447 13.5999L19.6162 18.3057C19.9995 18.6918 19.987 19.2938 19.6244 19.586L19.624 19.5855L19.6162 19.5934C19.3844 19.8269 19.1596 19.9 18.9364 19.9C18.8311 19.9 18.7 19.8638 18.5719 19.8043C18.4443 19.745 18.3298 19.6672 18.2566 19.5934L13.585 14.8875L13.5206 14.8226L13.4502 14.881C12.0501 16.0425 10.2375 16.7067 8.34202 16.7067C3.80983 16.7067 0.1 12.9707 0.1 8.40336C0.1 3.83734 3.89196 0.1 8.42544 0.1C12.9576 0.1 16.6675 3.83605 16.6675 8.40336C16.6675 10.3125 16.0084 12.0563 14.936 13.4689ZM8.34202 2.00084C4.86588 2.00084 1.98551 4.90345 1.98551 8.40336C1.98551 11.9882 4.86674 14.8059 8.34202 14.8059C11.8182 14.8059 14.6985 11.9033 14.6985 8.40336C14.6985 4.90345 11.8182 2.00084 8.34202 2.00084Z" fill="#1E1E1E" stroke="white" stroke-width="0.2"/>
</svg>
