<svg width="22" height="22" viewBox="0 0 22 22" fill="none" xmlns="http://www.w3.org/2000/svg">
<path d="M10.9683 12.2673C14.1683 12.2673 16.7347 9.66931 16.7347 6.50099C16.7347 3.33267 14.1683 0.702972 10.9683 0.702972C7.76832 0.702972 5.20199 3.30099 5.20199 6.46931C5.20199 9.63763 7.76832 12.2673 10.9683 12.2673ZM10.9683 2.22376C13.3129 2.22376 15.2139 4.12475 15.2139 6.46931C15.2139 8.81386 13.3129 10.7149 10.9683 10.7149C8.62377 10.7149 6.72278 8.84555 6.72278 6.50099C6.72278 4.15644 8.62377 2.22376 10.9683 2.22376ZM0.956441 21.297H21.0436C21.4554 21.297 21.804 20.9485 21.804 20.5366C21.804 16.5446 18.5406 13.2812 14.5485 13.2812H7.45149C3.45941 13.2812 0.196045 16.5446 0.196045 20.5366C0.196045 20.9485 0.54456 21.297 0.956441 21.297ZM7.45149 14.802H14.5485C17.4634 14.802 19.8396 16.9564 20.2198 19.7762H1.7802C2.1604 16.9564 4.53664 14.802 7.45149 14.802Z" fill="#1E1E1E"/>
</svg>
